<svg width="135" height="135" viewBox="0 0 135 135" fill="none" xmlns="http://www.w3.org/2000/svg">
<circle cx="67.95" cy="67.95" r="67.05" fill="#222222"/>
<path d="M76.685 43.3445C76.6243 43.0024 76.5927 42.6558 76.5905 42.3084C76.5905 41.5918 76.7221 40.9066 76.9528 40.2699C76.6416 39.8412 76.2337 39.4919 75.7622 39.2505C75.2908 39.0091 74.769 38.8823 74.2393 38.8805C72.3673 38.8805 70.8485 40.4128 70.8485 42.3084C70.8485 43.3006 71.2704 44.186 71.9341 44.8126C73.5427 44.4081 75.1286 43.918 76.685 43.3445Z" fill="white"/>
<path d="M82.472 45.7408C84.3459 45.7408 85.865 44.205 85.865 42.3106C85.865 40.4162 84.3459 38.8805 82.472 38.8805C80.5981 38.8805 79.079 40.4162 79.079 42.3106C79.079 44.205 80.5981 45.7408 82.472 45.7408Z" fill="white"/>
<path d="M41.1766 43.7472C41.1915 43.6015 41.1994 43.455 41.2002 43.3085C41.2002 42.2994 40.8864 41.4792 40.4994 41.4792C40.1112 41.4792 39.7985 42.2994 39.7985 43.3085C39.7985 43.4097 39.803 43.5065 39.8097 43.6032C40.2237 43.6269 40.6805 43.6764 41.1766 43.7472Z" fill="white"/>
<path d="M45.2581 47.3608C46.0323 47.3608 46.6599 46.1519 46.6599 44.6608C46.6599 43.1696 46.0323 41.9608 45.2581 41.9608C44.484 41.9608 43.8564 43.1696 43.8564 44.6608C43.8564 46.1519 44.484 47.3608 45.2581 47.3608Z" fill="white"/>
<path d="M40.0404 69.4546C40.1855 68.3049 39.6185 66.1089 39.6185 66.1089L34.2545 68.7672L38.795 72.6013C38.7961 72.6024 39.8964 70.6021 40.0404 69.4546M39.9942 76.7907C39.7591 75.65 38.498 73.7679 38.498 73.7679L34.25 78.1925L39.8356 80.2175C39.8356 80.2164 40.2316 77.9292 39.9942 76.7907M44.1117 86.4545C44.1117 86.4545 43.7214 84.083 43.1094 83.0559C42.4962 82.0299 40.6422 80.6574 40.6422 80.6574L38.0187 86.5175L44.1117 86.4545M39.1786 81.8915C38.9934 81.4561 38.8212 81.0153 38.6622 80.5696L36.0837 79.619C36.5675 81.3335 37.202 82.9704 38.0064 84.5071L39.1786 81.8915Z" fill="white"/>
<path d="M100.742 75.0166L97.7754 71.6889C98.0049 70.1825 98.1196 68.6716 98.1376 67.1731L101.75 64.6779L97.871 62.2659C97.7108 60.9039 97.4848 59.5504 97.1937 58.2103L100.011 54.5113L95.9304 53.5786C95.5508 52.4259 95.1256 51.2888 94.6557 50.1699L96.5716 47.0109L92.9649 46.6216C92.1065 45.0388 91.2538 43.7743 90.5045 42.899C90.518 42.7021 90.536 42.5064 90.536 42.3084C90.5371 37.8658 86.9191 34.25 82.472 34.25C81.0234 34.2465 79.601 34.6365 78.3568 35.3784C77.1115 34.6369 75.6885 34.2469 74.2393 34.25C69.7933 34.25 66.1752 37.8658 66.1752 42.3084C66.1752 42.7921 66.2191 43.2725 66.3069 43.7461C64.2672 44.015 62.1781 44.1523 60.0687 44.1523C56.3146 44.1523 52.8946 43.718 50.2992 43.2905C49.8211 40.6513 47.9761 38.7388 45.7115 38.7388C44.8632 38.7388 44.0701 39.0076 43.3861 39.4891C42.754 38.9315 41.9408 38.6224 41.0979 38.6195C39.3732 38.6195 37.9434 39.9065 37.418 41.7414C36.8836 41.9146 36.3267 42.2015 35.8554 42.6796C35.1162 43.4266 34.772 44.429 34.8294 45.6575C34.8654 46.4191 35.0859 47.3079 35.8509 48.2945C35.7354 49.1849 35.7661 50.0882 35.942 50.9686C37.0197 56.0075 51.1936 61.5121 64.7634 64.7319C67.3182 65.3382 69.7494 65.7894 72.0433 66.0909C71.9083 66.9358 71.7058 67.7772 71.3953 68.6052C70.8564 68.1811 70.1667 67.9426 69.3939 67.9426C66.7377 67.9426 62.5055 71.3075 62.5055 74.1065C62.5055 75.146 62.8981 76.0989 63.5394 76.8763C62.9791 77.216 62.402 77.5366 61.8102 77.8426C60.4782 75.7186 58.4161 74.4991 55.8961 74.498H55.895C53.2861 74.498 50.5017 75.7805 48.254 78.0148C47.9806 78.287 47.7297 78.5705 47.4867 78.8608C47.2426 78.5773 46.9985 78.2758 46.7589 77.9473L44.915 74.8096C43.3737 72.185 43.1229 68.9855 43.3715 67.5624L45.3639 68.2149V65.273C45.3639 62.7856 43.4862 60.8371 41.0889 60.8371H41.0877C39.7805 60.8371 38.5104 61.4255 37.5125 62.4965C36.6845 63.3841 35.8216 64.8478 35.3469 67.2305L37.9692 65.9154C38.7646 63.8004 40.0111 62.9454 41.0889 62.9465C42.233 62.9465 43.1825 63.8949 43.1825 65.273C43.0411 65.2252 42.893 65.2002 42.7437 65.1988C40.5072 65.1988 40.541 71.6326 43.0194 75.8514L43.0171 75.8503C44.0251 78.0643 45.896 80.717 47.5722 81.8746C48.0751 82.2223 48.5769 82.5429 49.0741 82.841C49.5117 83.1043 49.9449 83.3405 50.3791 83.5678C50.4241 83.5914 50.4702 83.6195 50.5164 83.6431C51.5997 84.2045 52.6696 84.6489 53.7226 84.9943C52.4862 87.0339 51.827 89.2884 51.89 91.5035C51.9057 92.0536 51.116 92.8119 50.2025 93.5184C49.8836 93.3523 49.5682 93.1798 49.2564 93.0009L43.6066 95.0833L43.7371 93.7918C38.1515 93.5668 40.1922 92.5509 42.8202 90.8791C43.1791 91.2245 43.5492 91.5598 43.9295 91.8871L44.1984 89.2276C43.5502 88.5962 42.9398 87.9272 42.3702 87.224L39.704 87.251C40.2057 87.9631 40.7322 88.6561 41.3105 89.3143L41.1125 89.4403C39.3395 90.554 37.5046 91.706 38.1042 93.6568C38.7399 95.7324 41.171 95.9484 46.5654 95.9484L46.6779 95.9495C45.4145 96.8889 44.5392 97.9149 45.0016 99.3808C45.6687 101.495 48.335 101.726 53.8385 101.726C54.131 101.726 54.4167 101.732 54.6946 101.738C54.986 101.744 55.2706 101.75 55.5474 101.75C58.4634 101.75 60.3601 100.841 61.5245 98.7238C61.7641 98.7429 62.0049 98.7553 62.2467 98.771L63.4291 101.308L64.9231 98.8149C65.8465 98.7914 66.7687 98.731 67.6872 98.6338L69.2397 100.819L70.2297 98.2771C71.3607 98.0722 72.4813 97.8139 73.5879 97.5031L75.8075 99.3504V96.7955C76.0066 96.7246 76.208 96.6605 76.406 96.5851C76.6636 97.016 77.3994 97.9351 79.0194 97.9351C79.8192 97.9351 80.6641 97.7225 81.6406 97.475C82.5755 97.2399 83.6364 96.9721 84.4677 96.9721C84.8986 96.9721 85.1225 97.0441 85.235 97.1038C90.4156 99.8758 92.3866 100.444 93.7512 100.444C95.2407 100.444 96.0192 99.6834 96.35 99.2311C96.8889 98.492 96.9901 97.6471 96.8799 96.7854C97.2455 96.5469 97.5785 96.2173 97.8237 95.7628C98.78 93.9875 97.5402 92.2516 95.972 90.0545C94.9966 88.6854 93.8885 87.134 93.0785 85.397C92.9076 85.031 92.7321 84.6672 92.552 84.3058L92.5385 84.2551C92.8029 83.8884 93.0537 83.5115 93.3069 83.1358L96.7055 83.2933L95.2228 79.8744C95.7971 78.7235 96.287 77.5323 96.6886 76.3104L100.742 75.0166M37.0107 45.5619C36.941 44.096 37.7679 43.5886 39.335 43.5886H39.3924C39.3901 43.4975 39.3867 43.4086 39.3867 43.3096C39.3867 41.8843 40.1529 40.7289 41.099 40.7289C42.044 40.7289 42.8112 41.8843 42.8112 43.3096C42.8112 43.5729 42.8011 43.8024 42.7865 44.015L43.2207 44.0971C43.4019 42.2623 44.4414 40.8481 45.7115 40.8481C47.1087 40.8481 48.2405 42.5559 48.2405 44.6608C48.2405 44.8081 48.236 44.9386 48.2326 45.0748C51.602 45.6935 55.6036 46.2628 60.0699 46.2628C62.9465 46.2628 66.0155 46.0254 69.2285 45.4134C68.6596 44.4776 68.3588 43.4035 68.3589 42.3084C68.3589 39.0245 70.9936 36.3594 74.2415 36.3594C75.8457 36.3594 77.2981 37.0108 78.359 38.0638C78.8994 37.5233 79.541 37.0946 80.2471 36.8022C80.9532 36.5097 81.71 36.3593 82.4742 36.3594C85.7221 36.3594 88.3569 39.0245 88.3569 42.3084C88.3569 43.5515 87.98 44.7046 87.3365 45.6598C87.9057 46.7173 88.2669 48.0268 88.3422 49.6074C88.6572 56.2404 83.8692 57.1314 77.9956 57.8705C77.5724 57.9175 77.1468 57.9389 76.721 57.9346C68.0922 57.9335 37.3066 51.827 37.0107 45.5619M65.2854 62.6844C48.848 58.7829 38.6982 53.4369 38.0795 50.5411C38.0615 50.4579 38.0604 50.3656 38.0457 50.2779C38.7362 50.7475 39.4545 51.1746 40.1967 51.557L40.2024 52.0779L40.6625 51.7933C41.3015 52.1116 42.008 52.4356 42.7921 52.7653L42.854 53.5134L43.4075 53.0184C44.1129 53.3019 44.8745 53.5899 45.698 53.8801L46.139 55.4023L47.2606 54.41C48.0879 54.68 48.9189 54.938 49.7536 55.184L50.4297 57.11L51.9181 55.7994C52.8526 56.0553 53.7902 56.2998 54.7306 56.5329L55.7296 59.0866L58.1067 57.3271C59.3555 57.6039 60.6144 57.866 61.8642 58.1112L62.1027 60.764L64.4236 58.5928C65.3247 58.7548 66.2079 58.9021 67.073 59.0405L68.405 62.3908L70.4176 59.5276C71.51 59.6705 72.5461 59.7875 73.4911 59.8741L75.1122 63.1186L76.874 60.0406C77.4106 60.0361 77.8752 60.0136 78.269 59.9641C78.818 59.8944 79.3917 59.8201 79.9722 59.738L81.7059 62.8689L82.9186 59.1879C83.7928 58.9741 84.6511 58.7064 85.4589 58.3543L88.0655 60.656L87.674 57.02C88.1866 56.6061 88.6407 56.1248 89.024 55.589L92.4586 56.4283L90.1378 53.1916C90.35 52.428 90.4738 51.6424 90.5067 50.8505L91.5215 50.7245L90.5135 49.7379C90.5112 49.6603 90.518 49.5928 90.5157 49.5151C90.4921 49.028 90.437 48.56 90.3661 48.1021C92.7927 50.6739 94.4881 55.2391 92.6049 58.5343C90.7599 61.7641 86.3938 64.4259 78.2938 64.4259C74.723 64.4214 70.4187 63.9028 65.2854 62.6844M80.3694 70.0846L71.4312 68.5614C76.9617 67.6951 80.3694 70.0846 80.3694 70.0846ZM71.6596 76.3408C72.2424 76.6423 74.1312 78.3736 74.1312 78.3736L71.3098 76.9831C71.4425 76.7829 71.5584 76.568 71.6596 76.3408M69.3939 70.0531C71.0971 70.0531 69.9845 72.4348 69.9845 73.8624C69.9845 75.2889 69.4681 76.6951 67.766 76.6951C66.0639 76.6951 64.6869 75.5386 64.6869 74.1076C64.688 72.68 67.694 70.0531 69.3939 70.0531M49.658 79.6764C51.4389 77.8258 53.7744 76.6074 55.8961 76.6085C57.4295 76.6096 58.8357 77.2599 59.8336 78.7348C56.6206 79.9835 53.0757 80.5168 49.658 79.6764M51.7797 80.0364C51.7797 80.0364 54.2626 80.9443 54.1715 84.1078C53.1702 82.0861 51.7797 80.0364 51.7797 80.0364ZM61.7765 92.4991C61.1746 92.4991 60.7764 92.6454 60.7347 93.1078C60.1677 99.1355 58.2339 99.6406 55.5474 99.6406C55.0074 99.6406 54.4359 99.6193 53.8374 99.6193C38.4091 99.6193 54.2154 96.5851 54.0702 91.4473C53.9094 85.8673 59.2891 80.7069 63.7329 80.708C66.1359 80.708 68.2644 82.2189 69.0957 85.9876C70.3771 91.8061 68.27 92.9075 65.8512 92.9075C64.3764 92.9098 62.7867 92.498 61.7765 92.4991M94.226 95.3116C94.9122 97.1836 95.0382 98.3334 93.7512 98.3334C92.6004 98.3334 90.3155 97.4098 86.2914 95.2576C85.7525 94.9696 85.1281 94.8616 84.4677 94.8616C82.4945 94.8616 80.2096 95.8246 79.0194 95.8246C77.7807 95.8246 77.7301 94.7818 80.4526 90.527C84.2844 84.5353 80.8565 75.3946 83.633 73.8973C83.9213 73.7346 84.2458 73.6468 84.5769 73.6419C86.9326 73.6419 88.9475 78.4546 90.4764 85.0055C90.6811 85.4116 90.8847 85.8279 91.0872 86.2633C93.6016 91.6509 98.6202 95.2846 94.226 95.3116M92.7995 79.8553C92.4901 80.4178 92.1605 80.9589 91.8219 81.4888C89.888 74.6364 87.6099 71.5325 84.578 71.5325C83.8906 71.5325 83.2156 71.708 82.5721 72.0545C80.1635 73.3528 80.204 76.3205 80.249 79.7574C80.2895 82.8466 80.3412 86.693 78.5975 89.4178C77.234 91.5508 76.3554 93.1449 76.1022 94.4409C72.2387 95.9426 68.1311 96.7176 63.986 96.7269C63.4314 96.7269 62.8779 96.7066 62.3255 96.6774C62.4897 96.0778 62.6304 95.4275 62.7372 94.7053L63.1175 94.7604C63.9444 94.8808 64.8815 95.018 65.8512 95.018C67.8436 95.018 69.368 94.4026 70.3827 93.1888C71.7496 91.5575 72.0174 89.132 71.2287 85.55C70.9801 84.4216 70.6359 83.4811 70.2286 82.6858C70.2635 82.6644 70.2995 82.6441 70.3344 82.6216C70.799 82.3246 71.2501 82.0108 71.6945 81.6856C71.798 81.6136 71.9015 81.5439 72.0016 81.4696C73.796 80.1241 75.4227 78.5705 76.8661 76.9291C76.9505 76.8335 77.0315 76.7368 77.1159 76.64C77.5872 76.0946 78.0427 75.5356 78.4816 74.9638C78.5413 74.8873 78.602 74.813 78.6594 74.7365C79.1341 74.1054 79.5819 73.4765 80.0004 72.8443C80.0634 72.7509 80.1174 72.6575 80.1792 72.563C80.5212 72.0376 80.8407 71.5179 81.1411 71.0015C81.1872 70.9228 81.2435 70.8406 81.2885 70.7608L81.2795 70.7596L81.2817 70.7574C81.2829 70.7596 81.2862 70.7596 81.2885 70.7608C81.329 70.691 81.3582 70.6258 81.3976 70.5549C81.7452 69.9373 82.0726 69.3275 82.3561 68.7403C82.4923 68.459 82.6216 68.1553 82.7487 67.8369C82.9839 67.28 83.183 66.713 83.3652 66.1449C90.3054 65.0244 93.2956 61.6921 94.5196 59.5479C94.7098 59.216 94.8717 58.8695 95.0101 58.5129C96.4906 65.1436 96.5885 72.9624 92.7995 79.8553Z" fill="white"/>
<path d="M35.1894 75.0335C35.2175 75.3013 35.267 75.5611 35.303 75.8244L37.2684 73.7443C37.2389 73.3761 37.2161 73.0074 37.1997 72.6384L34.9914 70.7574C34.9657 72.1855 35.0318 73.6138 35.1894 75.0335M48.4104 88.5785C47.453 87.746 45.1276 86.9979 45.1276 86.9979L44.4234 93.9639L50.5467 91.7094C50.5467 91.7094 49.3655 89.411 48.4104 88.5785Z" fill="white"/>
</svg>
